<?xml version="1.0" encoding="UTF-8" standalone="no"?>
<svg
   width="3200"
   height="1600"
   viewBox="0.011 0 2341.2339 1170.4467"
   version="1.1"
   id="svg2"
   sodipodi:docname="foxbusiness.svg"
   inkscape:version="1.3.1 (9b9bdc1480, 2023-11-25, custom)"
   xmlns:inkscape="http://www.inkscape.org/namespaces/inkscape"
   xmlns:sodipodi="http://sodipodi.sourceforge.net/DTD/sodipodi-0.dtd"
   xmlns="http://www.w3.org/2000/svg"
   xmlns:svg="http://www.w3.org/2000/svg">
  <defs
     id="defs2" />
  <sodipodi:namedview
     id="namedview2"
     pagecolor="#505050"
     bordercolor="#eeeeee"
     borderopacity="1"
     inkscape:showpageshadow="0"
     inkscape:pageopacity="0"
     inkscape:pagecheckerboard="0"
     inkscape:deskcolor="#505050"
     showgrid="false"
     inkscape:zoom="0.1913431"
     inkscape:cx="326.63839"
     inkscape:cy="243.01896"
     inkscape:window-width="1920"
     inkscape:window-height="961"
     inkscape:window-x="1920"
     inkscape:window-y="32"
     inkscape:window-maximized="1"
     inkscape:current-layer="svg2" />
  <path
     d="m 2116.5027,984.42717 h -250.101 c -2.3,0 -6.5,-10.101 -7.699,-12.2 -34.4,-62.10097 -68.801,-124.49997 -103,-186.49997 -36.601,66 -72.2,133.1 -108.7,199.19997 -81.9,0.199 -163.101,-0.4 -244.3,-0.2 9.199,-17.2 19,-34 28.8,-50.89997 68.3,-118 135.6,-237.6 204,-355.7 -72.7,-127 -146.5,-253 -219.601,-379.7 -0.199,0 -0.699,-0.8 -0.199,-0.7 h 251.3 c 30.899,56.2 61,113.1 91.399,169.7 31.601,-56.1 62.101,-113.3 93.4,-169.7 h 242.9 c 0.199,1 -0.5,2.1 -1,2.9 -70.9,124.6 -143.5,249.6 -214.301,374.4 78.702,136.6 158.902,273.1 237.102,409.39997 z"
     fill="#002885"
     id="path1" />
  <path
     d="m 1489.5177,511.15183 c 6.4,26 10.1,54.6 10.1,84.7 0,93.899 -27.199,163.5 -65,220.1 -6.399,9.601 -12.899,18.8 -19.899,27.601 -20.5,26 -45.3,49.699 -73,69.399 -18.601,13.2 -38,25.2 -59.5,35.30004 -42.8,20.1 -94.501,35.8 -154.101,35.8 -93.199,0 -161.99998,-28.4 -217.69894,-67.40004 -55.701,-39.1 -99.101,-90.8 -128.601,-156 -19.8,-43.7 -32.8,-94.1 -34.3,-155.5 -0.7,-30.4 3.1,-60.4 8.6,-86.4 14,-65.6 41.5,-117 76.301,-161.3 34.799,-44.2 78.899,-78.8 132.19896,-104.9 20.9,-10.2 44.30098,-18.9 69.80098,-25.2 25.5,-6.3 53.699,-10.6 84.199,-10.6 h 0.5 c 29.801,-1.4 61.4,3.4 86.2,8.9 25.8,5.7 49.7,14.4 71,24 66,29.8 115.2,74.4 154.8,130.1 26.1,36.5 45.7,80.3 58.4,131.4 z m -300,260.6 c 2.4,-9.6 1.7,-21.899 1.7,-34.6 v -289 c 0,-12.4 -1.4,-22 -5,-31 -3.3,-8.2 -8.4,-15.7 -14.4,-21.8 -11.7,-11.9 -29.3,-22.6 -51.399,-20.9 -10.7,0.8 -19.601,4.2 -27.4,9.1 -14.5,9.2 -25.5,23.3 -30,42 -2.3,9.5 -2.2,21.6 -2.2,34.1 v 289 c 0,6.2 -0.3,12.2 0.5,17.5 2.101,15.2 8.9,27.4 17.8,36.5 11.5,11.7 29.301,21.5 52.301,19 29.698,-3.2 51.499,-22.9 58.098,-49.9 z m -431.79994,-351.3 h -265.7 c -1.1,33 -0.2,69.5 -0.5,102.7 71.8,0.6 144.7,0.1 217,0.2 v 215.3 c -72.8,0.2 -146.2,-0.3 -218.6,0.2 0.1,85.399 0.5,169.2 0.5,254.60004 0,0.3 -0.101,0.4 -0.2,0.5 h -221.5 c -0.4,0.101 -0.4,-0.2 -0.7,-0.2 -0.5,-262.20004 -0.5,-526.10004 -0.099,-788.40004 0,-0.3 0,-0.7 0.199,-0.7 h 474.5 c 0.301,0 0.4,0 0.5,0.2 5,71.8 9.801,143.7 14.6,215.6 z"
     fill="#002885"
     id="path2" />
  <path
     style="fill:#000000;stroke-width:3.82368"
     d="M 268.59402,598.77313 V 204.93365 H 504.97237 741.3507 l 6.49663,96.54803 c 3.57323,53.10141 6.46473,101.27983 6.42566,107.06315 l -0.071,10.51514 H 622.28482 490.36771 v 53.53158 53.53158 h 108.97501 108.975 V 631.27445 736.4258 H 596.81344 485.30916 l 2.44082,128.09337 2.44082,128.0934 H 379.39241 268.59402 Z"
     id="path3" />
  <path
     style="fill:#000000;stroke-width:3.82368"
     d="M 1054.3611,975.46837 C 931.73318,952.63857 822.56583,860.95296 776.60902,742.19467 743.78821,657.38134 741.71344,559.88593 770.90336,474.08239 813.63286,348.47951 922.94295,251.97533 1052.1348,225.79771 c 44.0493,-8.92553 127.6883,-6.08903 168.2994,5.70763 126.1535,36.64494 223.0304,133.4551 262.8588,262.67772 9.7748,31.71433 10.4313,38.31868 10.397,104.59007 -0.043,83.64062 -5.2981,108.77764 -35.5698,170.15397 -53.8791,109.24037 -150.988,184.34257 -267.3987,206.80137 -34.2347,6.6047 -100.162,6.479 -136.3604,-0.2601 z m 91.589,-155.33702 c 19.7478,-5.48259 38.5496,-24.66351 43.9934,-44.88065 3.029,-11.24868 4.0043,-67.51211 3.2105,-185.21772 l -1.1402,-169.06117 -8.9361,-14.37265 c -27.7348,-44.60828 -92.9228,-43.39319 -114.9664,2.14294 -7.7798,16.07083 -8.0146,21.69326 -8.0146,191.85826 v 175.30223 l 9.4564,16.13615 c 6.1695,10.52736 15.1407,18.9498 25.8099,24.23096 18.4385,9.12686 28.7791,9.91623 50.5871,3.86165 z"
     id="path4" />
  <path
     style="fill:#000000;stroke-width:3.82368"
     d="m 1475.8353,981.32637 -67.9576,-2.0966 114.7293,-200.16674 C 1623.952,602.2476 1636.8336,577.937 1633.0275,570.67228 1627.2764,559.69481 1431.6897,220.70316 1424.7664,209.71325 l -5.4197,-8.60329 h 123.7608 123.7609 l 45.225,84.23017 c 24.8738,46.32659 46.5176,82.89058 48.0973,81.2533 1.5797,-1.63729 22.6894,-39.1107 46.9104,-83.27426 l 44.0382,-80.29737 118.7642,-1.01039 c 65.3204,-0.55573 118.7642,-0.10685 118.7642,0.99748 0,1.10434 -47.3824,84.89261 -105.2944,186.19616 -57.912,101.30355 -104.4562,186.37284 -103.4316,189.04286 1.0246,2.67003 52.9352,93.1229 115.357,201.00637 62.4219,107.88348 114.2296,197.44229 115.1284,199.01949 0.8987,1.5773 -53.9587,2.8198 -121.9054,2.7612 l -123.5395,-0.1066 -53.319,-97.46818 c -29.3255,-53.60753 -54.7285,-96.99842 -56.4511,-96.42423 -1.7226,0.57419 -27.0415,44.91306 -56.2643,98.53076 l -53.1323,97.48675 -51.0114,0.1848 c -28.0562,0.1016 -81.5922,-0.7587 -118.9688,-1.9119 z"
     id="path5" />
</svg>
