<?xml version="1.0" encoding="UTF-8" standalone="no"?>
<svg
   width="766"
   height="718"
   viewBox="0 0 76.786584 72"
   version="1.1"
   id="svg5"
   sodipodi:docname="reuters.svg"
   inkscape:version="1.3.1 (9b9bdc1480, 2023-11-25, custom)"
   xmlns:inkscape="http://www.inkscape.org/namespaces/inkscape"
   xmlns:sodipodi="http://sodipodi.sourceforge.net/DTD/sodipodi-0.dtd"
   xmlns="http://www.w3.org/2000/svg"
   xmlns:svg="http://www.w3.org/2000/svg">
  <defs
     id="defs5" />
  <sodipodi:namedview
     id="namedview5"
     pagecolor="#505050"
     bordercolor="#eeeeee"
     borderopacity="1"
     inkscape:showpageshadow="0"
     inkscape:pageopacity="0"
     inkscape:pagecheckerboard="0"
     inkscape:deskcolor="#505050"
     inkscape:zoom="0.5412"
     inkscape:cx="788.06356"
     inkscape:cy="359.38655"
     inkscape:window-width="1920"
     inkscape:window-height="961"
     inkscape:window-x="1920"
     inkscape:window-y="32"
     inkscape:window-maximized="1"
     inkscape:current-layer="svg5" />
  <g
     id="g2">
    <path
       d="m 44.485,21.868 a 1.925,1.925 0 0 1 -2.398,1.299 1.926,1.926 0 0 1 -1.311,-2.402 1.9347668,1.9347668 0 1 1 3.709,1.103 z m -18.543,4.567 a 0.97,0.97 0 0 0 -1.188,0.652 0.955,0.955 0 0 0 1.832,0.536 c 0.158,-0.503 -0.142,-1.032 -0.644,-1.188 z m 3.355,-3.69 a 1.174,1.174 0 0 0 -1.46,0.801 1.175,1.175 0 0 0 0.798,1.464 1.185,1.185 0 0 0 1.465,-0.8 1.187,1.187 0 0 0 -0.803,-1.465 z m 4.299,-2.601 a 1.51,1.51 0 0 0 -1.864,1.013 1.504,1.504 0 0 0 1.021,1.859 1.49,1.49 0 0 0 1.858,-1.014 1.512,1.512 0 0 0 -1.015,-1.858 z m 4.761,-1.065 a 1.68,1.68 0 0 0 -2.095,1.14 1.68,1.68 0 0 0 1.139,2.092 1.688,1.688 0 0 0 2.091,-1.138 1.677,1.677 0 0 0 -1.135,-2.094 z M 23.821,31.003 a 0.706,0.706 0 0 0 -0.879,0.48 0.716,0.716 0 0 0 0.478,0.893 c 0.382,0.11 0.776,-0.11 0.887,-0.488 a 0.712,0.712 0 0 0 -0.486,-0.885 z m 28.887,4.294 a 0.95,0.95 0 0 0 0.649,1.185 0.95482263,0.95482263 0 1 0 0.539,-1.832 0.959,0.959 0 0 0 -1.188,0.647 z m -1.104,-4.775 a 1.177,1.177 0 0 0 0.8,1.469 c 0.63,0.186 1.28,-0.174 1.464,-0.8 0.184,-0.626 -0.171,-1.279 -0.796,-1.459 a 1.178,1.178 0 0 0 -1.468,0.79 z m -2.6,-4.295 a 1.4969213,1.4969213 0 1 0 2.873,0.842 1.486,1.486 0 0 0 -1.016,-1.852 1.504,1.504 0 0 0 -1.857,1.01 z m -3.659,-3.336 a 1.68434,1.68434 0 1 0 3.234,0.943 1.678,1.678 0 0 0 -1.137,-2.09 1.691,1.691 0 0 0 -2.097,1.147 z m 6.976,17.226 a 0.72,0.72 0 0 0 0.479,0.885 0.708,0.708 0 0 0 0.885,-0.485 0.709,0.709 0 0 0 -0.481,-0.886 0.719,0.719 0 0 0 -0.883,0.486 z M 35.857,51.241 a 1.937,1.937 0 0 0 -1.314,-2.41 1.933,1.933 0 0 0 -2.401,1.312 1.936,1.936 0 0 0 1.314,2.408 c 1.026,0.297 2.109,-0.293 2.401,-1.31 z M 23.92,36.703 a 0.955,0.955 0 0 0 -0.644,-1.187 0.968,0.968 0 0 0 -1.19,0.65 0.951,0.951 0 0 0 0.65,1.18 0.948,0.948 0 0 0 1.184,-0.643 z m 1.106,4.772 a 1.164,1.164 0 0 0 -0.796,-1.452 1.16,1.16 0 0 0 -1.463,0.793 1.17658,1.17658 0 1 0 2.259,0.659 z m 2.604,4.301 a 1.515,1.515 0 0 0 -1.022,-1.868 1.501,1.501 0 0 0 -1.856,1.021 1.492,1.492 0 0 0 1.013,1.858 1.497,1.497 0 0 0 1.865,-1.011 z m 3.659,3.341 a 1.691,1.691 0 0 0 -1.149,-2.092 1.674,1.674 0 0 0 -2.084,1.148 1.678,1.678 0 0 0 1.139,2.085 1.693,1.693 0 0 0 2.094,-1.141 z m 19.394,-3.555 a 0.96,0.96 0 0 0 1.193,-0.646 0.965,0.965 0 0 0 -0.647,-1.189 0.963,0.963 0 0 0 -1.187,0.648 0.958,0.958 0 0 0 0.641,1.187 z m -3.349,3.695 a 1.174,1.174 0 0 0 1.458,-0.793 1.174,1.174 0 0 0 -0.791,-1.469 1.188,1.188 0 0 0 -1.472,0.798 1.193,1.193 0 0 0 0.805,1.464 z m -4.299,2.602 a 1.495,1.495 0 0 0 1.863,-1.017 1.494,1.494 0 0 0 -1.016,-1.854 1.4966671,1.4966671 0 1 0 -0.847,2.871 z m -4.757,1.061 a 1.668,1.668 0 0 0 2.089,-1.132 1.685662,1.685662 0 1 0 -3.235,-0.949 1.684,1.684 0 0 0 1.146,2.081 z"
       id="path2" />
  </g>
  <g
     id="g3">
    <path
       d="m 34.337,25.46 c 0.39,0.727 0.125,1.639 -0.605,2.033 a 1.508,1.508 0 0 1 -2.041,-0.614 c -0.4,-0.726 -0.124,-1.64 0.604,-2.032 a 1.502,1.502 0 0 1 2.042,0.613 z m -7.429,11.762 a 0.894,0.894 0 0 0 -0.354,1.203 0.87,0.87 0 0 0 1.196,0.348 0.867,0.867 0 0 0 0.36,-1.194 0.891,0.891 0 0 0 -1.202,-0.357 z m -0.15,-3.616 a 1.03,1.03 0 0 0 -0.413,1.389 c 0.277,0.508 0.899,0.691 1.402,0.423 0.497,-0.272 0.687,-0.907 0.418,-1.4 a 1.03,1.03 0 0 0 -1.407,-0.412 z m 0.938,-3.48 a 1.19,1.19 0 0 0 -0.485,1.597 c 0.315,0.569 1.03,0.789 1.6,0.478 a 1.18,1.18 0 0 0 0.483,-1.6 1.188,1.188 0 0 0 -1.598,-0.475 z m 1.914,-3.01 a 1.324,1.324 0 0 0 -0.541,1.806 c 0.35,0.639 1.144,0.882 1.788,0.533 a 1.318,1.318 0 0 0 0.547,-1.794 1.321,1.321 0 0 0 -1.794,-0.545 z m -1.465,13.53 a 0.74,0.74 0 0 0 -0.299,1.006 0.75,0.75 0 0 0 1.004,0.3 0.75,0.75 0 0 0 0.293,-1.008 0.743,0.743 0 0 0 -0.998,-0.298 z M 45.239,28.332 a 0.905,0.905 0 0 0 1.207,0.365 0.9,0.9 0 0 0 0.359,-1.208 0.88,0.88 0 0 0 -1.198,-0.357 0.887,0.887 0 0 0 -0.368,1.2 z m -3.003,-1.911 c 0.271,0.502 0.909,0.685 1.395,0.412 0.513,-0.272 0.696,-0.896 0.422,-1.396 a 1.032,1.032 0 0 0 -1.391,-0.424 1.049,1.049 0 0 0 -0.426,1.408 z m -3.47,-0.93 a 1.163,1.163 0 0 0 1.586,0.473 1.177,1.177 0 0 0 0.485,-1.597 1.167,1.167 0 0 0 -1.595,-0.471 1.175,1.175 0 0 0 -0.476,1.595 z m -3.623,0.143 a 1.33,1.33 0 0 0 1.801,0.546 1.34,1.34 0 0 0 0.534,-1.805 1.327,1.327 0 0 0 -2.335,1.259 z m 12.352,5.405 c 0.19,0.359 0.64,0.489 0.988,0.297 a 0.724,0.724 0 0 0 0.301,-0.991 0.748,0.748 0 0 0 -1.002,-0.314 c -0.343,0.199 -0.486,0.657 -0.287,1.008 z m -2.55,14.068 a 1.497,1.497 0 0 0 -2.046,-0.612 1.49,1.49 0 0 0 -0.603,2.034 c 0.396,0.728 1.31,0.994 2.042,0.61 0.727,-0.402 0.998,-1.319 0.607,-2.032 z M 31.389,43.649 a 0.89,0.89 0 0 0 -1.195,-0.356 0.88,0.88 0 0 0 -0.359,1.194 0.868,0.868 0 0 0 1.195,0.354 0.879,0.879 0 0 0 0.359,-1.192 z m 3.007,1.912 a 1.031,1.031 0 0 0 -1.395,-0.413 1.018,1.018 0 0 0 -0.417,1.396 c 0.26,0.503 0.891,0.695 1.391,0.425 a 1.05,1.05 0 0 0 0.421,-1.408 z m 3.478,0.93 C 37.571,45.92 36.848,45.717 36.268,46.013 a 1.188,1.188 0 0 0 -0.476,1.599 c 0.314,0.577 1.029,0.79 1.601,0.482 a 1.173,1.173 0 0 0 0.481,-1.603 z m 3.618,-0.145 A 1.334,1.334 0 0 0 39.69,45.808 c -0.648,0.343 -0.873,1.146 -0.521,1.799 a 1.3,1.3 0 0 0 1.786,0.531 c 0.65,-0.34 0.881,-1.151 0.537,-1.792 z m 8.22,-11.574 c 0.435,-0.25 0.601,-0.79 0.374,-1.213 a 0.883,0.883 0 0 0 -1.197,-0.356 0.877,0.877 0 0 0 -0.362,1.202 0.886,0.886 0 0 0 1.185,0.367 z m 0.166,3.61 c 0.502,-0.273 0.682,-0.9 0.409,-1.398 a 1.025,1.025 0 0 0 -1.392,-0.418 1.05,1.05 0 0 0 -0.424,1.406 c 0.266,0.493 0.912,0.675 1.407,0.41 z m -0.945,3.477 c 0.586,-0.315 0.79,-1.023 0.491,-1.602 a 1.185,1.185 0 0 0 -1.601,-0.479 1.192,1.192 0 0 0 -0.482,1.606 1.183,1.183 0 0 0 1.592,0.475 z m -1.901,2.997 c 0.644,-0.334 0.882,-1.153 0.533,-1.792 -0.354,-0.642 -1.154,-0.891 -1.795,-0.537 a 1.326,1.326 0 0 0 -0.536,1.798 1.314,1.314 0 0 0 1.798,0.531 z"
       id="path3" />
  </g>
  <g
     id="g4">
    <path
       d="m 72.761,39.855 a 3.857,3.857 0 0 1 -3.852,-3.86 3.845,3.845 0 0 1 3.857,-3.851 3.847,3.847 0 0 1 3.854,3.855 3.858,3.858 0 0 1 -3.859,3.856 z M 57.623,6.599 A 2.12,2.12 0 0 0 55.985,4.078 2.12,2.12 0 0 0 53.46,5.711 2.1283276,2.1283276 0 0 0 57.623,6.599 Z m 7.598,5.44 a 2.573,2.573 0 0 0 -2.141,-2.948 2.58,2.58 0 0 0 -0.808,5.095 2.583,2.583 0 0 0 2.949,-2.147 z m 6.122,7.069 z m 3.796,8.156 a 3.537,3.537 0 0 0 -3.353,-3.722 3.535,3.535 0 0 0 -3.725,3.351 3.544,3.544 0 1 0 7.078,0.371 z M 39.862,1.546 C 39.862,0.687 39.167,0 38.311,0 a 1.548,1.548 0 0 0 0,3.094 c 0.856,0 1.551,-0.691 1.551,-1.548 z M 55.1,63.762 a 2.1300754,2.1300754 0 1 0 0.886,4.167 2.1300754,2.1300754 0 0 0 -0.886,-4.167 z m 7.172,-5.946 a 2.578,2.578 0 1 0 0.802,5.093 2.578,2.578 0 0 0 -0.802,-5.093 z m 5.539,-7.786 a 3.212619,3.212619 0 1 0 0.672,6.39 3.207,3.207 0 0 0 2.86,-3.531 3.214,3.214 0 0 0 -3.532,-2.859 z m 3.598,-8.651 a 3.546,3.546 0 0 0 -3.348,3.724 3.534,3.534 0 0 0 3.725,3.351 3.537,3.537 0 0 0 3.352,-3.722 3.55,3.55 0 0 0 -3.729,-3.353 z M 38.311,68.905 a 1.548,1.548 0 0 0 0,3.095 1.5475,1.5475 0 1 0 0,-3.095 z M 3.859,39.855 A 3.858,3.858 0 0 0 7.709,35.995 3.845,3.845 0 0 0 3.859,32.144 3.854,3.854 0 0 0 0,36 3.863,3.863 0 0 0 3.859,39.855 Z M 21.522,8.235 a 2.129,2.129 0 0 0 1.64,-2.525 2.122,2.122 0 0 0 -2.524,-1.635 2.126444,2.126444 0 1 0 0.884,4.16 z m -7.17,5.949 a 2.583,2.583 0 0 0 2.146,-2.953 2.576,2.576 0 0 0 -2.953,-2.141 2.573,2.573 0 0 0 -2.14,2.948 2.578,2.578 0 0 0 2.947,2.146 z m -5.543,7.784 a 3.215,3.215 0 0 0 -0.671,-6.393 3.207,3.207 0 0 0 -2.859,3.534 3.21,3.21 0 0 0 3.53,2.859 z m -3.598,8.65 A 3.546,3.546 0 0 0 8.564,26.892 3.537,3.537 0 0 0 4.834,23.54 3.54,3.54 0 0 0 1.482,27.263 3.548,3.548 0 0 0 5.211,30.618 Z M 19,65.4 a 2.1280152,2.1280152 0 1 0 4.163,0.885 2.13,2.13 0 0 0 -1.64,-2.524 A 2.132,2.132 0 0 0 19,65.4 Z m -7.594,-5.442 a 2.57,2.57 0 0 0 2.14,2.949 2.577,2.577 0 1 0 -2.14,-2.949 z M 5.279,52.891 a 3.204,3.204 0 0 0 2.858,3.53 3.208,3.208 0 0 0 3.532,-2.858 3.214,3.214 0 0 0 -2.861,-3.532 3.208,3.208 0 0 0 -3.529,2.86 z m -3.797,-8.16 a 3.537,3.537 0 0 0 3.352,3.722 3.534,3.534 0 0 0 3.73,-3.351 3.547,3.547 0 0 0 -3.353,-3.724 3.553,3.553 0 0 0 -3.729,3.353 z m 45.315,22.942 a 1.666,1.666 0 0 0 -1.177,2.037 1.663,1.663 0 0 0 2.037,1.173 1.66,1.66 0 0 0 1.18,-2.035 1.665,1.665 0 0 0 -2.04,-1.175 z m -16.974,0 a 1.662,1.662 0 0 0 -0.86,3.21 1.662,1.662 0 1 0 0.86,-3.21 z M 48.838,3.151 a 1.662,1.662 0 0 0 -1.181,-2.035 1.663,1.663 0 0 0 -0.859,3.21 1.663,1.663 0 0 0 2.04,-1.175 z M 31.003,2.288 a 1.661,1.661 0 0 0 -2.04,-1.172 1.659,1.659 0 0 0 -1.177,2.032 1.6649842,1.6649842 0 0 0 3.217,-0.86 z"
       id="path4" />
  </g>
  <g
     id="g5">
    <path
       d="m 64.204,28.113 a 3.013,3.013 0 0 1 -3.957,-1.576 3.007,3.007 0 0 1 1.576,-3.956 3.012,3.012 0 0 1 2.381,5.532 z M 43.065,8.952 A 1.655,1.655 0 0 0 41.112,7.648 1.654,1.654 0 0 0 39.807,9.601 1.662,1.662 0 0 0 43.065,8.952 Z m 7.131,1.551 a 2.007,2.007 0 0 0 -2.447,-1.451 2.006,2.006 0 0 0 -1.453,2.447 2.0125864,2.0125864 0 1 0 3.9,-0.996 z m 6.575,3.173 a 2.501,2.501 0 0 0 -3.141,-1.646 2.505,2.505 0 0 0 -1.649,3.142 2.51,2.51 0 0 0 4.79,-1.496 z m 5.244,4.674 a 2.762,2.762 0 0 0 -3.554,-1.633 2.759,2.759 0 0 0 -1.636,3.554 2.7670535,2.7670535 0 1 0 5.19,-1.921 z M 28.771,10.821 a 1.208,1.208 0 0 0 -1.591,-0.63 1.2078258,1.2078258 0 1 0 0.957,2.218 c 0.613,-0.264 0.899,-0.976 0.634,-1.588 z m 30.162,39.893 a 1.663,1.663 0 0 0 1.924,2.712 1.66,1.66 0 0 0 0.391,-2.318 1.66,1.66 0 0 0 -2.315,-0.394 z m 3.304,-6.482 a 2.013,2.013 0 1 0 2.15,3.403 2.013,2.013 0 0 0 -2.15,-3.403 z M 63.8,36.938 a 2.513,2.513 0 0 0 -0.959,3.419 2.504,2.504 0 0 0 3.415,0.953 2.5,2.5 0 0 0 0.96,-3.413 2.506,2.506 0 0 0 -3.416,-0.959 z m -0.095,-7.314 a 2.767,2.767 0 0 0 -1.25,3.703 2.76,2.76 0 0 0 3.709,1.251 2.757,2.757 0 0 0 1.25,-3.704 2.77,2.77 0 0 0 -3.709,-1.25 z M 48.486,59.593 a 1.2082849,1.2082849 0 1 0 0.957,2.219 c 0.613,-0.264 0.899,-0.975 0.635,-1.59 A 1.211,1.211 0 0 0 48.486,59.593 Z M 14.803,49.418 a 3.012,3.012 0 0 0 1.567,-3.959 3.002,3.002 0 0 0 -3.95,-1.57 3.006,3.006 0 0 0 -1.575,3.956 3.014,3.014 0 0 0 3.958,1.573 z m 2.886,-28.132 a 1.659,1.659 0 0 0 0.396,-2.313 1.653,1.653 0 0 0 -2.314,-0.397 1.656,1.656 0 0 0 -0.396,2.318 1.662,1.662 0 0 0 2.314,0.392 z m -3.301,6.481 a 2.015,2.015 0 0 0 0.625,-2.782 2.0122889,2.0122889 0 0 0 -3.399,2.155 2.011,2.011 0 0 0 2.774,0.627 z m -1.568,7.295 a 2.509,2.509 0 1 0 -2.457,-4.373 2.508,2.508 0 0 0 2.457,4.373 z m 0.097,7.316 a 2.767,2.767 0 0 0 1.25,-3.708 2.758,2.758 0 0 0 -3.71,-1.25 2.764,2.764 0 0 0 -1.252,3.705 2.772,2.772 0 0 0 3.712,1.253 z m 20.64,20.674 a 1.664,1.664 0 0 0 1.957,1.307 1.667,1.667 0 0 0 1.302,-1.961 1.666,1.666 0 0 0 -1.956,-1.302 1.664,1.664 0 0 0 -1.303,1.956 z M 26.43,61.497 a 2.007,2.007 0 0 0 2.446,1.453 2.0116175,2.0116175 0 1 0 -0.996,-3.898 2.01,2.01 0 0 0 -1.45,2.445 z m -6.577,-3.174 a 2.495,2.495 0 0 0 3.139,1.646 2.502,2.502 0 0 0 1.651,-3.139 2.513,2.513 0 0 0 -3.146,-1.647 2.501,2.501 0 0 0 -1.644,3.14 z m -5.246,-4.677 a 2.757,2.757 0 0 0 3.554,1.634 2.766,2.766 0 0 0 -1.917,-5.188 2.77,2.77 0 0 0 -1.637,3.554 z m 39.581,2.439 a 1.298,1.298 0 0 0 1.611,2.034 1.298,1.298 0 1 0 -1.611,-2.034 z m -12.169,5.246 a 1.302,1.302 0 0 0 -1.094,1.475 1.296,1.296 0 0 0 1.472,1.095 1.297,1.297 0 0 0 1.099,-1.472 1.3,1.3 0 0 0 -1.477,-1.098 z M 35.702,9.195 a 1.297,1.297 0 0 0 -1.477,-1.094 1.2973408,1.2973408 0 1 0 0.378,2.567 1.3,1.3 0 0 0 1.099,-1.473 z m -13.054,4.897 a 1.303,1.303 0 0 0 -1.826,-0.213 1.3,1.3 0 1 0 1.826,0.213 z"
       id="path5" />
  </g>
</svg>
