<?xml version="1.0" encoding="UTF-8" standalone="no"?>
<svg
   width="400"
   height="250"
   viewBox="0 0 30.84096 19.2756"
   version="1.1"
   id="svg3"
   sodipodi:docname="wallstreetjournal.svg"
   inkscape:version="1.3.1 (9b9bdc1480, 2023-11-25, custom)"
   xmlns:inkscape="http://www.inkscape.org/namespaces/inkscape"
   xmlns:sodipodi="http://sodipodi.sourceforge.net/DTD/sodipodi-0.dtd"
   xmlns="http://www.w3.org/2000/svg"
   xmlns:svg="http://www.w3.org/2000/svg">
  <defs
     id="defs3" />
  <sodipodi:namedview
     id="namedview3"
     pagecolor="#505050"
     bordercolor="#eeeeee"
     borderopacity="1"
     inkscape:showpageshadow="0"
     inkscape:pageopacity="0"
     inkscape:pagecheckerboard="0"
     inkscape:deskcolor="#505050"
     showgrid="false"
     inkscape:zoom="0.86097322"
     inkscape:cx="364.12283"
     inkscape:cy="281.65801"
     inkscape:window-width="1920"
     inkscape:window-height="961"
     inkscape:window-x="1920"
     inkscape:window-y="32"
     inkscape:window-maximized="1"
     inkscape:current-layer="g3" />
  <g
     fill-rule="evenodd"
     clip-rule="evenodd"
     id="g3">
    <path
       style="font-size:14.8037px;font-family:aakar;-inkscape-font-specification:aakar;stroke-width:0.0875406"
       d="m 15.209309,3.5385829 v 0.354074 Q 14.67441,4.0044209 14.443102,4.2467438 14.226251,4.470375 14.067227,5.0294659 13.590155,6.706699 13.040799,8.6262168 12.332418,11.12344 11.999913,12.372051 11.465014,14.384745 11.060225,16.080618 H 10.843374 Q 10.583153,15.111546 10.163908,13.639303 9.860316,12.595683 9.2965026,10.713445 9.1085656,10.079819 8.5302956,8.1975818 L 6.3039576,16.080618 H 6.0871064 Q 5.5377504,13.95611 4.6269762,10.713445 3.8607692,7.9925909 3.2969562,6.0730732 3.0222782,5.1599084 2.8487972,4.7312868 2.5018352,3.8926569 1.8079122,3.8926569 v -0.354074 h 3.541901 v 0.354074 q -0.939688,0 -0.939688,0.6336258 0,0.2050041 0.02891,0.3540872 0.02891,0.149096 0.130111,0.4659021 L 6.6509166,12.353411 8.1977876,7.0980535 7.7207156,5.5699031 Q 7.3737536,4.4517476 7.1135326,4.1722087 6.8533106,3.8926569 6.2605846,3.8926569 v -0.354074 h 3.8599494 v 0.354074 q -0.4915294,0 -0.7228374,0.093201 -0.390332,0.1677234 -0.390332,0.6149856 0,0.1677236 0.115654,0.5963582 0.130111,0.4099818 0.274678,0.857257 l 1.9082904,6.3548733 1.807092,-6.3176058 q 0.101197,-0.3168194 0.159024,-0.6895336 0.07228,-0.3727139 0.07228,-0.6522657 0,-0.4845301 -0.260221,-0.6708936 -0.245765,-0.1863636 -0.737294,-0.1863636 v -0.354074 z m 6.635644,-0.2609116 0.318049,3.9694782 h -0.36142 q -0.202394,-1.2858919 -0.867404,-2.180416 -0.75175,-1.0249806 -1.821549,-1.0249806 -0.592726,0 -1.026428,0.4659025 -0.433703,0.4472625 -0.433703,1.2672387 0,1.1368087 1.24328,2.1990566 1.156539,0.9504323 2.327535,1.9008775 1.257739,1.2672518 1.257739,2.8885778 0,1.323159 -0.737297,2.273592 -0.852947,1.099528 -2.313078,1.099528 -0.636096,0 -1.37339,-0.316806 -0.737294,-0.31682 -0.867404,-0.31682 -0.216851,0 -0.332505,0.186364 -0.115654,0.186363 -0.115654,0.428622 h -0.318048 l -0.433703,-3.950825 h 0.332505 q 0.404789,1.267238 0.852948,1.975412 0.852948,1.32316 2.110684,1.32316 0.824034,0 1.272193,-0.614986 0.462616,-0.633626 0.462616,-1.453615 0,-0.857257 -0.375876,-1.434975 Q 20.167971,11.235255 18.66447,10.09846 17.479018,9.2225621 17.045315,8.6075765 16.409219,7.713052 16.409219,6.4458003 q 0,-1.5095226 0.809577,-2.38542 0.722837,-0.782709 1.807093,-0.782709 0.448158,0 0.954144,0.2050038 0.505986,0.2049909 1.055342,0.428622 0.260222,0 0.390332,-0.2422713 0.08674,-0.1490831 0.115654,-0.3913545 z m 5.594759,2.2922318 v 6.8953239 q 0,1.789062 -0.66501,2.739494 -0.65055,0.931805 -1.76372,0.931805 -0.40479,0 -0.70838,-0.149083 -0.28914,-0.130456 -0.41925,-0.316819 -0.31805,-0.465903 -0.31805,-0.894525 0,-0.298179 0.18794,-0.596358 0.18794,-0.316807 0.47707,-0.316807 0.54936,0 0.80958,1.043621 0.13011,0.52181 0.36142,0.52181 0.27468,0 0.41924,-0.260912 0.14457,-0.279538 0.14457,-0.969072 V 5.5699031 q 0,-1.0063399 -0.24576,-1.3417866 -0.24577,-0.3354596 -1.09872,-0.3354596 v -0.354074 h 4.14909 v 0.354074 q -0.83849,0 -1.08426,0.3168194 -0.24576,0.3168064 -0.24576,1.3604268 z"
       id="text3"
       aria-label="WSJ" />
  </g>
</svg>
