<?xml version="1.0" encoding="UTF-8" standalone="no"?>
<svg
   width="2500"
   height="1797"
   viewBox="0 0 200 143.754"
   version="1.1"
   id="svg3"
   sodipodi:docname="yahoofinance.svg"
   inkscape:version="1.3.1 (9b9bdc1480, 2023-11-25, custom)"
   xmlns:inkscape="http://www.inkscape.org/namespaces/inkscape"
   xmlns:sodipodi="http://sodipodi.sourceforge.net/DTD/sodipodi-0.dtd"
   xmlns="http://www.w3.org/2000/svg"
   xmlns:svg="http://www.w3.org/2000/svg">
  <defs
     id="defs3" />
  <sodipodi:namedview
     id="namedview3"
     pagecolor="#505050"
     bordercolor="#eeeeee"
     borderopacity="1"
     inkscape:showpageshadow="0"
     inkscape:pageopacity="0"
     inkscape:pagecheckerboard="0"
     inkscape:deskcolor="#505050"
     showgrid="false"
     inkscape:zoom="0.42348358"
     inkscape:cx="1250.3436"
     inkscape:cy="898.5"
     inkscape:window-width="1920"
     inkscape:window-height="961"
     inkscape:window-x="1920"
     inkscape:window-y="32"
     inkscape:window-maximized="1"
     inkscape:current-layer="svg3" />
  <g
     id="g3" />
  <path
     style="fill:#000000;stroke-width:0.246062"
     d="m 43.146008,131.4817 v -4.45112 l 0.862675,-0.1498 c 0.474471,-0.0823 5.210555,-0.5133 10.524631,-0.95761 5.314077,-0.44429 9.894879,-0.8633 10.179561,-0.93112 l 0.517605,-0.1233 V 110.90916 96.949596 L 49.387248,74.922738 C 40.67347,62.807966 31.843202,50.527157 29.76443,47.63205 l -3.779587,-5.263832 -1.023862,-0.06936 C 23.667815,42.211262 9.3193751,40.985693 7.0862054,40.77209 L 5.4183683,40.612562 V 35.502781 30.393 h 34.2910347 34.29104 l -0.144332,1.118564 c -0.07938,0.615211 -0.272579,2.862143 -0.429328,4.993184 -0.156752,2.131042 -0.341836,3.939641 -0.411295,4.019111 -0.06946,0.07947 -2.858834,0.378416 -6.198607,0.664324 -9.047228,0.774512 -12.032165,1.095758 -12.2474,1.318102 -0.148841,0.153758 22.020035,31.830852 27.386633,39.132739 l 1.007791,1.371218 6.389268,-6.240262 c 3.514091,-3.432144 9.768175,-9.529894 13.897957,-13.550559 4.12978,-4.020662 7.55916,-7.40372 7.62084,-7.517908 0.0617,-0.114189 -3.53119,-0.352856 -7.98418,-0.530373 -4.452982,-0.177517 -9.260934,-0.394897 -10.684342,-0.483065 l -2.588027,-0.160307 v -4.923203 -4.923201 l 4.773461,-0.170031 c 2.625406,-0.09351 12.537538,-0.285994 22.026968,-0.427731 9.48942,-0.141736 20.22971,-0.31388 23.86733,-0.382542 l 6.61384,-0.124839 v 5.904975 5.904977 l -0.51761,0.127612 c -0.54412,0.134149 -6.22641,0.664037 -14.28882,1.332468 -2.63968,0.218846 -4.91714,0.480641 -5.06102,0.581762 -0.1439,0.101124 -4.66126,4.693913 -10.03861,10.206206 -5.37733,5.512291 -13.55549,13.851139 -18.17368,18.530773 -4.618184,4.679628 -8.639604,8.775138 -8.936485,9.101129 l -0.539789,0.592707 -0.315499,13.523 c -0.173516,7.43765 -0.318819,14.1917 -0.322881,15.009 l -0.0074,1.48599 3.278166,0.15748 c 1.80299,0.0866 6.125,0.27733 9.604448,0.42378 3.47945,0.14645 6.97329,0.33855 7.76407,0.4269 l 1.43779,0.16065 v 4.44361 4.44358 H 76.962857 43.146008 Z"
     id="path11" />
  <path
     style="fill:#000000;stroke-width:2.36137"
     d="m 2063.8344,1347.8394 c -66.8857,-7.1015 -122.1096,-13.4039 -122.7199,-14.0055 -1.2827,-1.2645 24.8668,-1268.711823 26.1992,-1269.849078 1.4305,-1.221083 528.1393,25.625237 529.5007,26.988622 0.6817,0.682831 -41.0874,177.076916 -92.8203,391.986856 -51.7329,214.90994 -120.4128,500.46035 -152.622,634.5565 -47.266,196.7817 -59.2725,243.7554 -62.2447,243.5228 -2.0255,-0.1586 -58.4073,-6.0986 -125.293,-13.2002 z"
     id="path12"
     transform="matrix(0.08,0,0,0.08,0,-0.003)" />
  <path
     style="fill:#000000;stroke-width:2.36137"
     d="m 1915.0568,1791.6869 c -0.01,-0.974 -5.8545,-63.3104 -12.9958,-138.5253 -7.1412,-75.2148 -12.5075,-137.2309 -11.9249,-137.8135 1.0041,-1.0041 294.6142,21.751 318.332,24.6711 l 11.2165,1.381 v 126.0289 126.0289 h -152.3081 c -83.7695,0 -152.3134,-0.797 -152.3197,-1.7711 z"
     id="path13"
     transform="matrix(0.08,0,0,0.08,0,-0.003)" />
</svg>
